<svg xmlns="http://www.w3.org/2000/svg" viewBox="0 0 368.37 69.56"><defs><style>.cls-1{fill:#f9f9f9;}.cls-2{fill:#f6f6f6;}</style></defs><g id="Layer_2" data-name="Layer 2"><g id="Layer_1-2" data-name="Layer 1"><path class="cls-1" d="M239.3,61c-6.71,7.37-14.73,10-24.05,7.82a14.57,14.57,0,0,1-11.32-13.57c-.32-6.27,3.1-11.29,9.61-14,7.52-3.1,15.14-2.51,22.73-.36,1.73.49,2.16.3,2.09-1.5A24.79,24.79,0,0,0,237.7,33c-1.83-6.07-7.92-9.25-15.27-8a28,28,0,0,0-11.19,4.6c-1.26.86-1.7.57-2.32-.66-2-4-2.06-4,1.92-6.08,6.51-3.46,13.34-4.92,20.69-3.57,8.83,1.62,14.65,8.06,14.93,17,.23,7.06.15,14.13.22,21.2,0,1.64-.28,3.46,2,3.93.62.13.6.71.61,1.22a4.53,4.53,0,0,1,0,1.73c-.64,1.47,1.76,4.09-1.66,4.48-4.67.54-7.06-.72-7.81-4.15C239.59,63.61,239.5,62.46,239.3,61Zm-1-10.29c0-1,0-2,0-3,0-.7,0-1.23-.9-1.51-7.06-2.24-14.14-3.39-21.06.24-5.26,2.75-6.14,9.17-2.09,13.53,2.89,3.11,6.56,3.62,10.53,3.32C233,62.68,238.32,57.71,238.32,50.7Z"/><path class="cls-1" d="M36.07,58.36c-5.73,8.39-13.19,11.83-22.58,11.06C7.76,69,4,65.78,1.94,60.54.3,56.44.11,52.1.06,47.79,0,39.14.07,30.48,0,21.83c0-1.64.26-2.5,2.13-2.28,2.05.25,4.78-.87,6,.45,1,1.12.34,3.8.35,5.78,0,7.49,0,15,0,22.47a27.68,27.68,0,0,0,.38,4.46c1.4,8.24,7,11.65,14.87,8.92C29.06,59.78,32.6,56,34.78,50.81A6,6,0,0,0,35,48.36c0-8.91,0-17.81,0-26.71,0-1.64.42-2.11,2.07-2.12,6.32,0,6.32-.09,6.32,6.31q0,15.85,0,31.71c0,1.65-.28,3.45,2.06,3.91.67.13.48.77.51,1.23a5.25,5.25,0,0,1,0,2c-.55,1.44,1.66,4.1-1.91,4.24-4.67.19-7.28-1.3-7.59-4.56C36.25,62.55,36.2,60.74,36.07,58.36Z"/><path class="cls-1" d="M68.54,29c5.79-7,12.79-10.48,21.58-10.14a12.1,12.1,0,0,1,11.42,7.82c1.79,4.15,2.08,8.55,2.13,13,.1,9,0,18,.08,27,0,1.8-.56,2.2-2.26,2.19-6,0-6,0-6.06-6q0-11.61-.09-23.23a23.23,23.23,0,0,0-.87-6.14c-1.63-5.75-5.84-8.26-11.61-6.83A18.72,18.72,0,0,0,71.63,34.3a12.38,12.38,0,0,0-2.31,7.45c.14,8.16,0,16.32.1,24.48,0,2.14-.63,2.6-2.64,2.55C61,68.66,61,68.75,61,62.9c0-13.58,0-27.15,0-40.72,0-2,.39-2.73,2.54-2.66,5,.15,5,0,5,5.09Z"/><path class="cls-1" d="M368.16,30.69c-.79.26-1.61.44-2.35.77-3.25,1.45-5.64,1.69-8.57-1.64-4.72-5.37-13.37-5.17-19.35-.59-10.09,7.72-8.43,25.86,2.88,31.58A15.17,15.17,0,0,0,360,56c.55-.83,1-1.13,1.94-.77a33.84,33.84,0,0,0,5,1.51c1.81.37,1.61,1.17.85,2.39-4.46,7.15-11.22,10.17-19.32,10.41a24.66,24.66,0,0,1-25.58-22.28c-1.3-14.75,7.08-26,21-28.27C354.05,17.35,364,22.13,368.16,30.69Z"/><path class="cls-1" d="M137.22,18.84a28.45,28.45,0,0,1,17.08,5.29c1.15.82,1.42,1.48.37,2.48a1.49,1.49,0,0,0-.15.2c-2.34,3.21-2.31,3.16-5.64,1.25a21.73,21.73,0,0,0-16.07-2.74,10.3,10.3,0,0,0-4,1.89c-2.32,1.8-2.66,4.3-2.35,7S129,38,131.21,38.7c4.26,1.36,8.65,2.35,12.95,3.6a39,39,0,0,1,6.08,2.19,12,12,0,0,1,3.38,19.43c-3.59,3.76-8.19,5.19-13.24,5.53-8,.53-15.52-1-22.32-5.49-1.48-1-2-1.73-.74-3.47,2.39-3.31,2.25-3.42,5.64-1.29a26.46,26.46,0,0,0,16.88,4.14,13,13,0,0,0,6.1-2A6.74,6.74,0,0,0,149,54.72c-.2-2.48-1.81-3.86-3.83-4.82-3.63-1.72-7.6-2.36-11.43-3.46-2.39-.7-4.81-1.33-7.16-2.14-7.8-2.69-10.56-10-6.46-17.21,3.25-5.72,8.74-7.58,14.85-8.24A20.91,20.91,0,0,1,137.22,18.84Z"/><path class="cls-1" d="M265.86,44.12c0-5.41-.05-10.82,0-16.23,0-1.42-.4-2-1.82-1.8a4.17,4.17,0,0,1-.5,0c-4.65,0-5.2-.77-4.46-5.43.21-1.31,1-1.06,1.79-1.09,5-.2,5-.2,5-5.12,0-3.17,0-6.33,0-9.49,0-1.19.16-1.71,1.59-1.75,6.66-.21,6.66-.27,6.66,6.39,0,2.58.1,5.16,0,7.73-.08,1.69.37,2.4,2.18,2.28,2.24-.15,4.5,0,6.74-.07,1.52-.07,2.19.23,2.17,2-.06,4.55,0,4.51-4.57,4.57-2.06,0-4.68-.89-6,.39s-.41,3.93-.43,6c-.06,7.33,0,14.65,0,22,0,6.1,3.58,8.64,9.43,6.71,3.46-1.15,3.24-1.06,4.54,2.18,1,2.52.19,3.44-2.09,4.24-4.07,1.43-8.14,2.32-12.44,1.36-4.81-1.06-7.54-4.22-7.62-9.09-.09-5.24,0-10.48,0-15.72Z"/><path class="cls-2" d="M173.14,43.81c0-5.07-.07-10.15,0-15.22,0-1.86-.31-2.61-2.4-2.55-4.54.15-5.1-.75-4.36-5.44.19-1.17.86-1,1.58-1,1.63-.14,3.76.75,4.78-.38s.31-3.34.34-5.06c.07-3.08.09-6.16,0-9.24,0-1.34.42-1.73,1.7-1.65,2.16.13,4.92-.65,6.27.42,1,.83.33,3.89.35,6,0,2.67.13,5.33,0,8-.11,1.73.55,2.07,2.1,2,2.41-.12,4.83,0,7.24-.06,1.24,0,1.7.26,1.74,1.63.13,4.93.19,4.89-4.67,4.94-2.05,0-4.75-.88-6,.36s-.35,4-.36,6c-.05,7.57,0,15.15,0,22.72,0,4.94,2.84,7.27,7.71,6.35.41-.07.82-.18,1.22-.26,1.34-.28,2.81-1.79,3.79-1.09s.8,2.6,1.41,3.85c.88,1.77.08,2.59-1.41,3.18-4.15,1.64-8.39,2.7-12.89,1.81-5.08-1-7.8-3.87-8-9-.21-5.4-.05-10.81-.05-16.22Z"/><path class="cls-2" d="M300.42,44.32c0-7.57.05-15.15-.05-22.73,0-1.69.51-2.06,2.1-2.06,6.3,0,6.3-.07,6.3,6.09,0,13.58,0,27.15.05,40.72,0,2-.61,2.47-2.52,2.44-5.88-.09-5.88,0-5.88-6Z"/><path class="cls-2" d="M308.77,5.34c0,5,0,5-5,5-3.3,0-3.3,0-3.3-3.22V6.38c0-6.54,0-6.5,6.51-6.34,1.34,0,2,.31,1.87,1.81A33.84,33.84,0,0,0,308.77,5.34Z"/></g></g></svg>